# xmcd
#
# Track frame offsets:
#	150
#	19543
#	32359
#	42418
#	52191
#	68478
#	74585
#	90831
#	103893
#	117159
#	130366
#	143509
#	154565
#	170063
#	183594
#	197364
#
# Disc length: 2870
#
# Revision: 3
# Processed by: cddbd v1.5.1PL0 Copyright (c) Steve Scherf et al.
# Submitted via: Axialis_AX_CDPlayer 2.6
# Normalized: r2:DSETVAR1
#
DISCID=d40b3410
DTITLE=Various Artist - The Best Of Country and Western, CD 3
DYEAR=1900
DGENRE=
TTITLE0=John Denver - To The Wild Country
TTITLE1=Keny Rogers - Reuben James
TTITLE2=Willie Nelson - Broken Promises
TTITLE3=Loretta Lynn - You Ain't Woman Enough
TTITLE4=Johnny Cash - A Boy Named Sue
TTITLE5=Jim Reeves - Have I Told You Lately That I Love You
TTITLE6=Brenda Lee - Coming On Strong
TTITLE7=Ferlin Husky - Me And Old C.B.
TTITLE8=Charly Pride - Kaw Liga
TTITLE9=George Jones - Hello Darlin'
TTITLE10=Faron Young - Four In The Morning
TTITLE11=Stonewall Jackson - Things To Talk About
TTITLE12=Melba Montgomery - No Charge
TTITLE13=Billie Jo Spears - Fever
TTITLE14=Jerry Lee Lewis - Will the circle be unbroken
TTITLE15=Bobby Bare - The Jogger
EXTD=
EXTT0=
EXTT1=
EXTT2=
EXTT3=
EXTT4=
EXTT5=
EXTT6=
EXTT7=
EXTT8=
EXTT9=
EXTT10=
EXTT11=
EXTT12=
EXTT13=
EXTT14=
EXTT15=
PLAYORDER=
